# xmcd CD database file
#
# Track frame offsets:
#	150
#	28877
#	48543
#	69459
#	94354
#	118342
#	136721
#	174825
#	200053
#	224656
#
# Disc length: 3135 seconds
#
# Revision: 0
# Processed by: cddbd v1.5.2PL0 Copyright (c) Steve Scherf et al.
# Submitted via: CDex 1.51
#
DISCID=9c0c3d0a
DTITLE=Manu Katche - Manu Katche
DYEAR=2012
DGENRE=Jazz
TTITLE0=Running After Years
TTITLE1=Bliss
TTITLE2=Loving You
TTITLE3=Walking By Your Side
TTITLE4=Imprint
TTITLE5=Short Ride
TTITLE6=Beats and Bounce
TTITLE7=Slowing The Tides
TTITLE8=Loose
TTITLE9=Dusk On Carnon
EXTD=YEAR: 2012
EXTT0=
EXTT1=
EXTT2=
EXTT3=
EXTT4=
EXTT5=
EXTT6=
EXTT7=
EXTT8=
EXTT9=
PLAYORDER=
